<mxfile host="app.diagrams.net" modified="2022-02-07T09:16:32.633Z" agent="5.0 (Windows NT 10.0; Win64; x64) AppleWebKit/537.36 (KHTML, like Gecko) Chrome/97.0.4692.99 Safari/537.36" etag="h_Kv59oAMURGuSevhdvE" version="16.5.3" type="github">
  <diagram id="C5RBs43oDa-KdzZeNtuy" name="Page-1">
    <mxGraphModel dx="1422" dy="737" grid="1" gridSize="10" guides="1" tooltips="1" connect="1" arrows="1" fold="1" page="1" pageScale="1" pageWidth="827" pageHeight="1169" math="0" shadow="0">
      <root>
        <mxCell id="WIyWlLk6GJQsqaUBKTNV-0" />
        <mxCell id="WIyWlLk6GJQsqaUBKTNV-1" parent="WIyWlLk6GJQsqaUBKTNV-0" />
        <mxCell id="tnMK15XjLRO8_bRIk2cx-35" value="Document" style="rounded=1;whiteSpace=wrap;html=1;fontSize=12;glass=0;strokeWidth=1;shadow=0;" vertex="1" parent="WIyWlLk6GJQsqaUBKTNV-1">
          <mxGeometry x="510" y="65" width="120" height="40" as="geometry" />
        </mxCell>
        <mxCell id="tnMK15XjLRO8_bRIk2cx-36" value="" style="endArrow=none;html=1;rounded=0;entryX=0.5;entryY=1;entryDx=0;entryDy=0;exitX=0.5;exitY=0;exitDx=0;exitDy=0;" edge="1" parent="WIyWlLk6GJQsqaUBKTNV-1" target="tnMK15XjLRO8_bRIk2cx-35">
          <mxGeometry width="50" height="50" relative="1" as="geometry">
            <mxPoint x="570" y="135" as="sourcePoint" />
            <mxPoint x="550" y="395" as="targetPoint" />
            <Array as="points" />
          </mxGeometry>
        </mxCell>
        <mxCell id="tnMK15XjLRO8_bRIk2cx-37" value="" style="endArrow=none;html=1;rounded=0;entryX=0.5;entryY=1;entryDx=0;entryDy=0;" edge="1" parent="WIyWlLk6GJQsqaUBKTNV-1">
          <mxGeometry width="50" height="50" relative="1" as="geometry">
            <mxPoint x="570" y="195" as="sourcePoint" />
            <mxPoint x="570" y="175" as="targetPoint" />
          </mxGeometry>
        </mxCell>
        <mxCell id="tnMK15XjLRO8_bRIk2cx-38" value="" style="endArrow=none;html=1;rounded=0;" edge="1" parent="WIyWlLk6GJQsqaUBKTNV-1">
          <mxGeometry width="50" height="50" relative="1" as="geometry">
            <mxPoint x="349.5" y="195" as="sourcePoint" />
            <mxPoint x="670" y="195" as="targetPoint" />
          </mxGeometry>
        </mxCell>
        <mxCell id="tnMK15XjLRO8_bRIk2cx-39" value="" style="endArrow=none;html=1;rounded=0;" edge="1" parent="WIyWlLk6GJQsqaUBKTNV-1">
          <mxGeometry width="50" height="50" relative="1" as="geometry">
            <mxPoint x="670" y="195" as="sourcePoint" />
            <mxPoint x="670" y="325" as="targetPoint" />
          </mxGeometry>
        </mxCell>
        <mxCell id="tnMK15XjLRO8_bRIk2cx-40" value="" style="endArrow=none;html=1;rounded=0;" edge="1" parent="WIyWlLk6GJQsqaUBKTNV-1">
          <mxGeometry width="50" height="50" relative="1" as="geometry">
            <mxPoint x="350" y="225" as="sourcePoint" />
            <mxPoint x="350" y="195" as="targetPoint" />
          </mxGeometry>
        </mxCell>
        <mxCell id="tnMK15XjLRO8_bRIk2cx-41" value="" style="endArrow=none;html=1;rounded=0;" edge="1" parent="WIyWlLk6GJQsqaUBKTNV-1">
          <mxGeometry width="50" height="50" relative="1" as="geometry">
            <mxPoint x="350" y="285" as="sourcePoint" />
            <mxPoint x="350" y="265" as="targetPoint" />
          </mxGeometry>
        </mxCell>
        <mxCell id="tnMK15XjLRO8_bRIk2cx-42" value="Root element:&lt;br&gt;&amp;lt;html&amp;gt;" style="rounded=1;whiteSpace=wrap;html=1;fontSize=12;glass=0;strokeWidth=1;shadow=0;" vertex="1" parent="WIyWlLk6GJQsqaUBKTNV-1">
          <mxGeometry x="510" y="135" width="120" height="40" as="geometry" />
        </mxCell>
        <mxCell id="tnMK15XjLRO8_bRIk2cx-43" value="Element:&lt;br&gt;&amp;lt;head&amp;gt;" style="rounded=1;whiteSpace=wrap;html=1;fontSize=12;glass=0;strokeWidth=1;shadow=0;" vertex="1" parent="WIyWlLk6GJQsqaUBKTNV-1">
          <mxGeometry x="290" y="225" width="120" height="40" as="geometry" />
        </mxCell>
        <mxCell id="tnMK15XjLRO8_bRIk2cx-44" value="Element:&lt;br&gt;&amp;lt;meta&amp;gt;" style="rounded=1;whiteSpace=wrap;html=1;fontSize=12;glass=0;strokeWidth=1;shadow=0;" vertex="1" parent="WIyWlLk6GJQsqaUBKTNV-1">
          <mxGeometry x="150" y="305" width="120" height="40" as="geometry" />
        </mxCell>
        <mxCell id="tnMK15XjLRO8_bRIk2cx-45" value="Element:&lt;br&gt;&amp;lt;title&amp;gt;" style="rounded=1;whiteSpace=wrap;html=1;fontSize=12;glass=0;strokeWidth=1;shadow=0;" vertex="1" parent="WIyWlLk6GJQsqaUBKTNV-1">
          <mxGeometry x="290" y="305" width="120" height="40" as="geometry" />
        </mxCell>
        <mxCell id="tnMK15XjLRO8_bRIk2cx-46" value="" style="endArrow=none;html=1;rounded=0;" edge="1" parent="WIyWlLk6GJQsqaUBKTNV-1">
          <mxGeometry width="50" height="50" relative="1" as="geometry">
            <mxPoint x="210" y="285" as="sourcePoint" />
            <mxPoint x="490" y="285" as="targetPoint" />
          </mxGeometry>
        </mxCell>
        <mxCell id="tnMK15XjLRO8_bRIk2cx-47" value="" style="endArrow=none;html=1;rounded=0;" edge="1" parent="WIyWlLk6GJQsqaUBKTNV-1">
          <mxGeometry width="50" height="50" relative="1" as="geometry">
            <mxPoint x="210" y="285" as="sourcePoint" />
            <mxPoint x="210" y="305" as="targetPoint" />
          </mxGeometry>
        </mxCell>
        <mxCell id="tnMK15XjLRO8_bRIk2cx-48" value="" style="endArrow=none;html=1;rounded=0;" edge="1" parent="WIyWlLk6GJQsqaUBKTNV-1">
          <mxGeometry width="50" height="50" relative="1" as="geometry">
            <mxPoint x="350" y="305" as="sourcePoint" />
            <mxPoint x="350" y="285" as="targetPoint" />
          </mxGeometry>
        </mxCell>
        <mxCell id="tnMK15XjLRO8_bRIk2cx-49" value="" style="endArrow=none;html=1;rounded=0;" edge="1" parent="WIyWlLk6GJQsqaUBKTNV-1">
          <mxGeometry width="50" height="50" relative="1" as="geometry">
            <mxPoint x="490" y="305" as="sourcePoint" />
            <mxPoint x="490" y="285" as="targetPoint" />
          </mxGeometry>
        </mxCell>
        <mxCell id="tnMK15XjLRO8_bRIk2cx-50" value="Element:&lt;br&gt;&amp;lt;link&amp;gt;" style="rounded=1;whiteSpace=wrap;html=1;fontSize=12;glass=0;strokeWidth=1;shadow=0;" vertex="1" parent="WIyWlLk6GJQsqaUBKTNV-1">
          <mxGeometry x="430" y="305" width="120" height="40" as="geometry" />
        </mxCell>
        <mxCell id="tnMK15XjLRO8_bRIk2cx-51" value="text:&lt;br&gt;&amp;lt;chatbot&amp;gt;" style="rounded=1;whiteSpace=wrap;html=1;fontSize=12;glass=0;strokeWidth=1;shadow=0;" vertex="1" parent="WIyWlLk6GJQsqaUBKTNV-1">
          <mxGeometry x="430" y="365" width="120" height="40" as="geometry" />
        </mxCell>
        <mxCell id="tnMK15XjLRO8_bRIk2cx-52" value="" style="endArrow=none;html=1;rounded=0;exitX=0.5;exitY=0;exitDx=0;exitDy=0;entryX=0.5;entryY=1;entryDx=0;entryDy=0;" edge="1" parent="WIyWlLk6GJQsqaUBKTNV-1" source="tnMK15XjLRO8_bRIk2cx-51" target="tnMK15XjLRO8_bRIk2cx-50">
          <mxGeometry width="50" height="50" relative="1" as="geometry">
            <mxPoint x="500" y="315" as="sourcePoint" />
            <mxPoint x="500" y="295" as="targetPoint" />
          </mxGeometry>
        </mxCell>
        <mxCell id="tnMK15XjLRO8_bRIk2cx-53" value="Element:&lt;br&gt;&amp;lt;body&amp;gt;" style="rounded=1;whiteSpace=wrap;html=1;fontSize=12;glass=0;strokeWidth=1;shadow=0;" vertex="1" parent="WIyWlLk6GJQsqaUBKTNV-1">
          <mxGeometry x="610" y="325" width="120" height="40" as="geometry" />
        </mxCell>
        <mxCell id="tnMK15XjLRO8_bRIk2cx-54" value="" style="endArrow=none;html=1;rounded=0;exitX=0.5;exitY=1;exitDx=0;exitDy=0;" edge="1" parent="WIyWlLk6GJQsqaUBKTNV-1" source="tnMK15XjLRO8_bRIk2cx-53">
          <mxGeometry width="50" height="50" relative="1" as="geometry">
            <mxPoint x="680" y="305" as="sourcePoint" />
            <mxPoint x="670" y="385" as="targetPoint" />
          </mxGeometry>
        </mxCell>
        <mxCell id="tnMK15XjLRO8_bRIk2cx-55" value="Element:&lt;br&gt;&amp;lt;div&amp;gt;" style="rounded=1;whiteSpace=wrap;html=1;fontSize=12;glass=0;strokeWidth=1;shadow=0;" vertex="1" parent="WIyWlLk6GJQsqaUBKTNV-1">
          <mxGeometry x="610" y="385" width="120" height="40" as="geometry" />
        </mxCell>
        <mxCell id="tnMK15XjLRO8_bRIk2cx-56" value="Element:&lt;br&gt;&amp;lt;div&amp;gt;" style="rounded=1;whiteSpace=wrap;html=1;fontSize=12;glass=0;strokeWidth=1;shadow=0;" vertex="1" parent="WIyWlLk6GJQsqaUBKTNV-1">
          <mxGeometry x="680" y="486" width="120" height="40" as="geometry" />
        </mxCell>
        <mxCell id="tnMK15XjLRO8_bRIk2cx-57" value="Element:&lt;br&gt;&amp;lt;div&amp;gt;" style="rounded=1;whiteSpace=wrap;html=1;fontSize=12;glass=0;strokeWidth=1;shadow=0;" vertex="1" parent="WIyWlLk6GJQsqaUBKTNV-1">
          <mxGeometry x="510" y="486" width="120" height="40" as="geometry" />
        </mxCell>
        <mxCell id="tnMK15XjLRO8_bRIk2cx-58" value="Element:&lt;br&gt;&amp;lt;div&amp;gt;" style="rounded=1;whiteSpace=wrap;html=1;fontSize=12;glass=0;strokeWidth=1;shadow=0;" vertex="1" parent="WIyWlLk6GJQsqaUBKTNV-1">
          <mxGeometry x="850" y="486" width="120" height="40" as="geometry" />
        </mxCell>
        <mxCell id="tnMK15XjLRO8_bRIk2cx-59" value="Element:&lt;br&gt;&amp;lt;div&amp;gt;" style="rounded=1;whiteSpace=wrap;html=1;fontSize=12;glass=0;strokeWidth=1;shadow=0;" vertex="1" parent="WIyWlLk6GJQsqaUBKTNV-1">
          <mxGeometry x="360" y="486" width="120" height="40" as="geometry" />
        </mxCell>
        <mxCell id="tnMK15XjLRO8_bRIk2cx-60" value="" style="endArrow=none;html=1;rounded=0;" edge="1" parent="WIyWlLk6GJQsqaUBKTNV-1">
          <mxGeometry width="50" height="50" relative="1" as="geometry">
            <mxPoint x="420" y="465" as="sourcePoint" />
            <mxPoint x="910" y="465" as="targetPoint" />
          </mxGeometry>
        </mxCell>
        <mxCell id="tnMK15XjLRO8_bRIk2cx-61" value="" style="endArrow=none;html=1;rounded=0;" edge="1" parent="WIyWlLk6GJQsqaUBKTNV-1">
          <mxGeometry width="50" height="50" relative="1" as="geometry">
            <mxPoint x="419" y="486" as="sourcePoint" />
            <mxPoint x="419" y="466" as="targetPoint" />
          </mxGeometry>
        </mxCell>
        <mxCell id="tnMK15XjLRO8_bRIk2cx-62" value="" style="endArrow=none;html=1;rounded=0;" edge="1" parent="WIyWlLk6GJQsqaUBKTNV-1">
          <mxGeometry width="50" height="50" relative="1" as="geometry">
            <mxPoint x="580" y="486" as="sourcePoint" />
            <mxPoint x="580" y="466" as="targetPoint" />
          </mxGeometry>
        </mxCell>
        <mxCell id="tnMK15XjLRO8_bRIk2cx-63" value="" style="endArrow=none;html=1;rounded=0;" edge="1" parent="WIyWlLk6GJQsqaUBKTNV-1">
          <mxGeometry width="50" height="50" relative="1" as="geometry">
            <mxPoint x="740" y="466" as="sourcePoint" />
            <mxPoint x="740" y="486" as="targetPoint" />
          </mxGeometry>
        </mxCell>
        <mxCell id="tnMK15XjLRO8_bRIk2cx-64" value="" style="endArrow=none;html=1;rounded=0;" edge="1" parent="WIyWlLk6GJQsqaUBKTNV-1" target="tnMK15XjLRO8_bRIk2cx-55">
          <mxGeometry width="50" height="50" relative="1" as="geometry">
            <mxPoint x="670" y="465" as="sourcePoint" />
            <mxPoint x="680" y="395" as="targetPoint" />
            <Array as="points">
              <mxPoint x="670" y="425" />
            </Array>
          </mxGeometry>
        </mxCell>
        <mxCell id="tnMK15XjLRO8_bRIk2cx-65" value="" style="endArrow=none;html=1;rounded=0;" edge="1" parent="WIyWlLk6GJQsqaUBKTNV-1">
          <mxGeometry width="50" height="50" relative="1" as="geometry">
            <mxPoint x="910" y="465" as="sourcePoint" />
            <mxPoint x="910" y="485" as="targetPoint" />
          </mxGeometry>
        </mxCell>
        <mxCell id="tnMK15XjLRO8_bRIk2cx-66" value="" style="endArrow=none;html=1;rounded=0;entryX=0.5;entryY=1;entryDx=0;entryDy=0;" edge="1" parent="WIyWlLk6GJQsqaUBKTNV-1" target="tnMK15XjLRO8_bRIk2cx-59">
          <mxGeometry width="50" height="50" relative="1" as="geometry">
            <mxPoint x="420" y="545" as="sourcePoint" />
            <mxPoint x="429" y="476" as="targetPoint" />
          </mxGeometry>
        </mxCell>
        <mxCell id="tnMK15XjLRO8_bRIk2cx-67" value="text:&lt;br&gt;&amp;lt;짱구에게 물어봐!&amp;gt;" style="rounded=1;whiteSpace=wrap;html=1;fontSize=12;glass=0;strokeWidth=1;shadow=0;" vertex="1" parent="WIyWlLk6GJQsqaUBKTNV-1">
          <mxGeometry x="360" y="545" width="120" height="40" as="geometry" />
        </mxCell>
        <mxCell id="tnMK15XjLRO8_bRIk2cx-68" value="text:&lt;br&gt;&amp;lt;호호이!&amp;gt;" style="rounded=1;whiteSpace=wrap;html=1;fontSize=12;glass=0;strokeWidth=1;shadow=0;" vertex="1" parent="WIyWlLk6GJQsqaUBKTNV-1">
          <mxGeometry x="850" y="545" width="120" height="40" as="geometry" />
        </mxCell>
        <mxCell id="tnMK15XjLRO8_bRIk2cx-69" value="" style="endArrow=none;html=1;rounded=0;exitX=0.5;exitY=1;exitDx=0;exitDy=0;entryX=0.5;entryY=0;entryDx=0;entryDy=0;" edge="1" parent="WIyWlLk6GJQsqaUBKTNV-1" source="tnMK15XjLRO8_bRIk2cx-58" target="tnMK15XjLRO8_bRIk2cx-68">
          <mxGeometry width="50" height="50" relative="1" as="geometry">
            <mxPoint x="920" y="475" as="sourcePoint" />
            <mxPoint x="920" y="495" as="targetPoint" />
          </mxGeometry>
        </mxCell>
      </root>
    </mxGraphModel>
  </diagram>
</mxfile>
